<mxfile host="app.diagrams.net" modified="2021-11-16T09:12:03.714Z" agent="5.0 (Windows NT 10.0; Win64; x64) AppleWebKit/537.36 (KHTML, like Gecko) Chrome/96.0.4664.45 Safari/537.36" etag="P4b7BnmhR2uaOlIHKI8q" version="15.7.4" type="github">
  <diagram id="C5RBs43oDa-KdzZeNtuy" name="Page-1">
    <mxGraphModel dx="1564" dy="920" grid="1" gridSize="10" guides="1" tooltips="1" connect="1" arrows="1" fold="1" page="1" pageScale="1" pageWidth="827" pageHeight="1169" math="0" shadow="0">
      <root>
        <mxCell id="WIyWlLk6GJQsqaUBKTNV-0" />
        <mxCell id="WIyWlLk6GJQsqaUBKTNV-1" parent="WIyWlLk6GJQsqaUBKTNV-0" />
        <mxCell id="iEdOMIVq3G-N2h6gISAE-2" value="" style="edgeStyle=orthogonalEdgeStyle;rounded=0;orthogonalLoop=1;jettySize=auto;html=1;" parent="WIyWlLk6GJQsqaUBKTNV-1" source="iEdOMIVq3G-N2h6gISAE-0" target="iEdOMIVq3G-N2h6gISAE-1" edge="1">
          <mxGeometry relative="1" as="geometry" />
        </mxCell>
        <mxCell id="iEdOMIVq3G-N2h6gISAE-0" value="Start" style="ellipse;whiteSpace=wrap;html=1;" parent="WIyWlLk6GJQsqaUBKTNV-1" vertex="1">
          <mxGeometry x="320" y="40" width="120" height="80" as="geometry" />
        </mxCell>
        <mxCell id="iEdOMIVq3G-N2h6gISAE-4" value="" style="edgeStyle=orthogonalEdgeStyle;rounded=0;orthogonalLoop=1;jettySize=auto;html=1;" parent="WIyWlLk6GJQsqaUBKTNV-1" source="iEdOMIVq3G-N2h6gISAE-1" target="iEdOMIVq3G-N2h6gISAE-3" edge="1">
          <mxGeometry relative="1" as="geometry" />
        </mxCell>
        <mxCell id="iEdOMIVq3G-N2h6gISAE-1" value="Input Process" style="shape=parallelogram;perimeter=parallelogramPerimeter;whiteSpace=wrap;html=1;fixedSize=1;" parent="WIyWlLk6GJQsqaUBKTNV-1" vertex="1">
          <mxGeometry x="320" y="210" width="120" height="60" as="geometry" />
        </mxCell>
        <mxCell id="iEdOMIVq3G-N2h6gISAE-6" value="" style="edgeStyle=orthogonalEdgeStyle;rounded=0;orthogonalLoop=1;jettySize=auto;html=1;" parent="WIyWlLk6GJQsqaUBKTNV-1" source="iEdOMIVq3G-N2h6gISAE-3" target="iEdOMIVq3G-N2h6gISAE-5" edge="1">
          <mxGeometry relative="1" as="geometry" />
        </mxCell>
        <mxCell id="iEdOMIVq3G-N2h6gISAE-3" value="Queue.Push(Process(Ready))&lt;br&gt;P=Queue.font()" style="whiteSpace=wrap;html=1;" parent="WIyWlLk6GJQsqaUBKTNV-1" vertex="1">
          <mxGeometry x="260" y="350" width="240" height="90" as="geometry" />
        </mxCell>
        <mxCell id="iEdOMIVq3G-N2h6gISAE-8" value="" style="edgeStyle=orthogonalEdgeStyle;rounded=0;orthogonalLoop=1;jettySize=auto;html=1;" parent="WIyWlLk6GJQsqaUBKTNV-1" source="iEdOMIVq3G-N2h6gISAE-5" edge="1">
          <mxGeometry relative="1" as="geometry">
            <mxPoint x="570" y="578" as="targetPoint" />
          </mxGeometry>
        </mxCell>
        <mxCell id="lMRALmbY9cwCMeXO5Jfr-0" style="edgeStyle=orthogonalEdgeStyle;rounded=0;orthogonalLoop=1;jettySize=auto;html=1;entryX=0.5;entryY=0;entryDx=0;entryDy=0;fontSize=11;" edge="1" parent="WIyWlLk6GJQsqaUBKTNV-1" source="iEdOMIVq3G-N2h6gISAE-5" target="iEdOMIVq3G-N2h6gISAE-17">
          <mxGeometry relative="1" as="geometry" />
        </mxCell>
        <mxCell id="iEdOMIVq3G-N2h6gISAE-5" value="P.Burst=Min[Queue(i).Burst,...]&lt;br&gt;&amp;amp;&amp;amp;&lt;br&gt;Queue.size()!=0" style="rhombus;whiteSpace=wrap;html=1;" parent="WIyWlLk6GJQsqaUBKTNV-1" vertex="1">
          <mxGeometry x="240" y="525" width="280" height="105" as="geometry" />
        </mxCell>
        <mxCell id="iEdOMIVq3G-N2h6gISAE-12" style="edgeStyle=orthogonalEdgeStyle;rounded=0;orthogonalLoop=1;jettySize=auto;html=1;entryX=1;entryY=0.5;entryDx=0;entryDy=0;" parent="WIyWlLk6GJQsqaUBKTNV-1" source="iEdOMIVq3G-N2h6gISAE-11" target="iEdOMIVq3G-N2h6gISAE-3" edge="1">
          <mxGeometry relative="1" as="geometry">
            <Array as="points">
              <mxPoint x="720" y="578" />
              <mxPoint x="720" y="395" />
            </Array>
          </mxGeometry>
        </mxCell>
        <mxCell id="iEdOMIVq3G-N2h6gISAE-11" value="Run(P)&lt;br&gt;Terminated(P)&lt;br&gt;Queue.pop()" style="whiteSpace=wrap;html=1;" parent="WIyWlLk6GJQsqaUBKTNV-1" vertex="1">
          <mxGeometry x="570" y="547.5" width="120" height="60" as="geometry" />
        </mxCell>
        <mxCell id="iEdOMIVq3G-N2h6gISAE-13" value="True" style="text;html=1;align=center;verticalAlign=middle;resizable=0;points=[];autosize=1;strokeColor=none;fillColor=none;" parent="WIyWlLk6GJQsqaUBKTNV-1" vertex="1">
          <mxGeometry x="520" y="560" width="40" height="20" as="geometry" />
        </mxCell>
        <mxCell id="lMRALmbY9cwCMeXO5Jfr-3" style="edgeStyle=orthogonalEdgeStyle;rounded=0;orthogonalLoop=1;jettySize=auto;html=1;entryX=0.5;entryY=0;entryDx=0;entryDy=0;fontSize=11;" edge="1" parent="WIyWlLk6GJQsqaUBKTNV-1" source="iEdOMIVq3G-N2h6gISAE-17" target="iEdOMIVq3G-N2h6gISAE-19">
          <mxGeometry relative="1" as="geometry" />
        </mxCell>
        <mxCell id="lMRALmbY9cwCMeXO5Jfr-5" style="edgeStyle=orthogonalEdgeStyle;rounded=0;orthogonalLoop=1;jettySize=auto;html=1;entryX=1;entryY=0.5;entryDx=0;entryDy=0;fontSize=11;" edge="1" parent="WIyWlLk6GJQsqaUBKTNV-1" source="iEdOMIVq3G-N2h6gISAE-17" target="iEdOMIVq3G-N2h6gISAE-26">
          <mxGeometry relative="1" as="geometry" />
        </mxCell>
        <mxCell id="iEdOMIVq3G-N2h6gISAE-17" value="Queue.size=0" style="rhombus;whiteSpace=wrap;html=1;" parent="WIyWlLk6GJQsqaUBKTNV-1" vertex="1">
          <mxGeometry x="300" y="730" width="160" height="80" as="geometry" />
        </mxCell>
        <mxCell id="iEdOMIVq3G-N2h6gISAE-23" value="Flase" style="text;html=1;align=center;verticalAlign=middle;resizable=0;points=[];autosize=1;strokeColor=none;fillColor=none;rotation=90;" parent="WIyWlLk6GJQsqaUBKTNV-1" vertex="1">
          <mxGeometry x="380" y="640" width="40" height="20" as="geometry" />
        </mxCell>
        <mxCell id="lMRALmbY9cwCMeXO5Jfr-6" style="edgeStyle=orthogonalEdgeStyle;rounded=0;orthogonalLoop=1;jettySize=auto;html=1;entryX=0;entryY=0.5;entryDx=0;entryDy=0;fontSize=11;" edge="1" parent="WIyWlLk6GJQsqaUBKTNV-1" source="iEdOMIVq3G-N2h6gISAE-26" target="iEdOMIVq3G-N2h6gISAE-3">
          <mxGeometry relative="1" as="geometry">
            <Array as="points">
              <mxPoint x="150" y="395" />
            </Array>
          </mxGeometry>
        </mxCell>
        <mxCell id="iEdOMIVq3G-N2h6gISAE-26" value="Queue.pop()&lt;br&gt;Queue.push(P)" style="whiteSpace=wrap;html=1;" parent="WIyWlLk6GJQsqaUBKTNV-1" vertex="1">
          <mxGeometry x="110" y="740" width="120" height="60" as="geometry" />
        </mxCell>
        <mxCell id="iEdOMIVq3G-N2h6gISAE-28" value="Flase" style="text;html=1;align=center;verticalAlign=middle;resizable=0;points=[];autosize=1;strokeColor=none;fillColor=none;" parent="WIyWlLk6GJQsqaUBKTNV-1" vertex="1">
          <mxGeometry x="250" y="740" width="40" height="20" as="geometry" />
        </mxCell>
        <mxCell id="iEdOMIVq3G-N2h6gISAE-30" value="SJF" style="text;html=1;align=center;verticalAlign=middle;resizable=0;points=[];autosize=1;strokeColor=none;fillColor=none;strokeWidth=3;fontSize=65;" parent="WIyWlLk6GJQsqaUBKTNV-1" vertex="1">
          <mxGeometry x="535" y="30" width="130" height="80" as="geometry" />
        </mxCell>
        <mxCell id="iEdOMIVq3G-N2h6gISAE-19" value="End" style="ellipse;whiteSpace=wrap;html=1;" parent="WIyWlLk6GJQsqaUBKTNV-1" vertex="1">
          <mxGeometry x="320" y="860" width="120" height="60" as="geometry" />
        </mxCell>
        <mxCell id="lMRALmbY9cwCMeXO5Jfr-4" value="False" style="text;html=1;align=center;verticalAlign=middle;resizable=0;points=[];autosize=1;strokeColor=none;fillColor=none;fontSize=11;rotation=90;" vertex="1" parent="WIyWlLk6GJQsqaUBKTNV-1">
          <mxGeometry x="374" y="820" width="40" height="20" as="geometry" />
        </mxCell>
      </root>
    </mxGraphModel>
  </diagram>
</mxfile>
